<?xml version="1.0" encoding="utf-8"?>
<!-- Generator: Adobe Illustrator 23.0.4, SVG Export Plug-In . SVG Version: 6.00 Build 0)  -->
<svg version="1.1" id="Layer_1" xmlns="http://www.w3.org/2000/svg" xmlns:xlink="http://www.w3.org/1999/xlink" x="0px" y="0px"
	 viewBox="0 0 99.74 99.74" style="enable-background:new 0 0 99.74 99.74;" xml:space="preserve">
<style type="text/css">
	.st0{fill:#020203;}
</style>
<path class="github-svg" d="M49.94,49.62c-0.02,0-0.05,0-0.07,0c-0.02,0-0.05,0-0.07,0c-5.96,0-11.21-1.51-14.31,1.34
	c-1.86,1.71-2.64,3.77-2.64,5.99c0,9.26,7.42,10.4,16.95,10.4h0.14c9.53,0,16.95-1.14,16.95-10.4c0-2.22-0.78-4.28-2.64-5.99
	C61.15,48.11,55.9,49.62,49.94,49.62z M41.84,62.27c-1.81,0-3.28-2.04-3.28-4.55c0-2.51,1.47-4.55,3.28-4.55
	c1.81,0,3.29,2.04,3.29,4.55C45.12,60.24,43.65,62.27,41.84,62.27z M57.9,62.27c-1.81,0-3.29-2.04-3.29-4.55
	c0-2.51,1.47-4.55,3.29-4.55c1.81,0,3.28,2.04,3.28,4.55C61.19,60.24,59.72,62.27,57.9,62.27z M49.87,1.87c-26.51,0-48,21.49-48,48
	c0,26.51,21.49,48,48,48c26.51,0,48-21.49,48-48C97.87,23.36,76.38,1.87,49.87,1.87z M54.25,69.57c-0.86,0-2.57,0-4.38,0
	c-1.81,0-3.52,0-4.38,0c-3.8,0-18.86-0.29-18.86-18.45c0-4.18,1.43-7.23,3.78-9.78c-0.37-0.92-0.39-6.17,1.6-11.18
	c0,0,4.58,0.5,11.5,5.25c1.45-0.4,3.91-0.6,6.37-0.6c2.45,0,4.91,0.2,6.37,0.6c6.92-4.75,11.5-5.25,11.5-5.25
	c2,5.02,1.98,10.26,1.6,11.18c2.34,2.54,3.78,5.6,3.78,9.78C73.11,69.28,58.05,69.57,54.25,69.57z"/>
</svg>
