<?xml version="1.0" encoding="utf-8"?>
<!-- Generator: Adobe Illustrator 23.0.4, SVG Export Plug-In . SVG Version: 6.00 Build 0)  -->
<svg version="1.1" id="Layer_1" xmlns="http://www.w3.org/2000/svg" xmlns:xlink="http://www.w3.org/1999/xlink" x="0px" y="0px"
	 viewBox="0 0 99.74 99.74" style="enable-background:new 0 0 99.74 99.74;" xml:space="preserve">
<style type="text/css">
	.st0{fill:#020203;}
</style>
<path class="st0" d="M49.87,1.87c-26.51,0-48,21.49-48,48c0,26.51,21.49,48,48,48c26.51,0,48-21.49,48-48
	C97.87,23.36,76.38,1.87,49.87,1.87z M38.12,69.76H28.4V38.49h9.72V69.76z M33.2,34.65c-3.07,0-5.05-2.17-5.05-4.86
	c0-2.75,2.05-4.86,5.18-4.86c3.14,0,5.05,2.11,5.12,4.86C38.44,32.47,36.46,34.65,33.2,34.65z M73.62,69.76H63.9V52.43
	c0-4.03-1.41-6.78-4.92-6.78c-2.69,0-4.28,1.86-4.99,3.65c-0.26,0.64-0.32,1.54-0.32,2.43v18.04h-9.72v-21.3
	c0-3.9-0.13-7.16-0.26-9.98h8.44l0.45,4.35h0.19c1.28-2.05,4.41-5.05,9.66-5.05c6.4,0,11.19,4.29,11.19,13.5V69.76z"/>
</svg>
